<svg id="Layer_1" data-name="Layer 1" xmlns="http://www.w3.org/2000/svg" viewBox="0 0 402.22 257.21"><defs><style>.cls-1{fill:#0f1a50;}.cls-2{fill:#fdb315;}.cls-3{fill:#ea1c24;}.cls-4{fill:#01834a;}.cls-5{fill:#00834a;}.cls-6{fill:#121b50;}.cls-7{fill:#fbf6e6;}.cls-8{fill:#f9fcfa;}.cls-9{fill:#fbebeb;}.cls-10{fill:#c5e1d5;}.cls-11{fill:#b3b9c8;}.cls-12{fill:#fade9f;}.cls-13{fill:#f5b7b9;}.cls-14{fill:#468f67;}.cls-15{fill:#90dd41;}.cls-16{fill:#fefefe;}</style></defs><path class="cls-1" d="M446.61,275.33c6.31,2.32,12.58,4.88,18.94,6.89s11.23,7.9,17.51,9.83a2.38,2.38,0,0,1,1.07,1.76c0,1.11-.7,2-1.54,1.95a40.37,40.37,0,0,1-6.65-.87c-6.73-1.6-13.16-5.07-20.28-5,7.86,4.53,15.49,9.56,23.16,14.38-.51,2.55-2.16.84-3,1.84.25,2.58,2.49,2.19,3.37,3.87-1.14,1.18-2.27.09-3.23-.4-3.86-1.94-7.81,1.19-11.74-.58-.86-.39-2.48,2.13-3.76,3.32l2.33,2.54c-1.17,2.32-3.15-.49-4.23,1.47,6.07,5.86,13.76,7.37,20.07,12.69-3.93.78-7.45-1.37-11.36-2.07.16,3,2.07,3.43,3.35,4.55,1.44,1.28,3,2.36,3.39,4.87-2.8,1.74-5.84-1.16-8.72.68,1,3,3.11,1,4.4,2.43-.34,3.83-2.61,3.24-4.6,3.35-8.73.45-17.12-2.78-25.7-4-2.46-.34-5.67-2.08-6.44,3.43-2.65,2.81-5.82,1.9-8.79,1.9q-96.06.07-192.13,0-57.17,0-114.32,0c-2.81,0-5.81.81-8.3-1.9.74-9.37-5.52-4.79-8.53-7.35,1.92-2.47,4.3-1.77,6.27-1.27a40,40,0,0,0,20-.17c6.76-1.69,13.72-1,20.6-.22,1.17.13,2.94,1.09,3.3-1s-1.49-2.62-2.63-2.63c-9.65-.13-19.23-2-28.93-1.48-4.31.23-9.12,1.45-12.89-4.29-2.28-3.46-6.71-2.92-9.82-6.38-2-2.21-4.57-2.46-3.79-7,.26-1.52-1.89-1.5-1.58-4.12,7.94,2.38,15.68-3.22,23.79-.5-5.05-4.13-11.2-2.39-16.39-6.17-.63-2,2.08-1.19,1.78-2.46-1.52-6.43,2.31-6.58,5.18-7.92,1-.44,2.58-.17,2.34-2.23a2.89,2.89,0,0,0-2.54-2.45c-3.78-.83-7.55-1.85-11.34-2.58-1.73-.33-3-.54-3.08-3.52-.06-3.23,1.73-2.55,3-2.68,3.63-.4,7.12-2,10.93-1.18,2.28.49-.13-1.85.33-2.76,2.17-3,5-2.23,7.69-2.24,19.7-.09,39.4-.05,59.11-.05h258c3,0,6.09-.24,9.11.45C441.85,271.45,444.56,272.6,446.61,275.33Z" transform="translate(-90.43 -219.74)"/><path class="cls-2" d="M109.37,342.3q50.4,0,100.8.08,111.38,0,222.74-.08c.41.3,1.17.55,1.2.91.93,9.93,7.17,9.78,12.49,11.31,2.34.68,5.35.11,7,1.85,5.81,6.28,13.5,2.66,19.11,6.46s12.54,1.87,17.55,8.5H449.33c6.33,3.75,11.81,4.33,17.3,4.88,7.77.77,15.63.46,23.2,3.62,1.42.59,3.07.77,2.79,3.25-.27,2.29-2,1.62-3.16,1.68-1.76.09-3.51.08-5.27.11a2.11,2.11,0,0,0-1.35-.53c-15.73,2.18-31.18-1.69-46.7-3.8-2.85-.65-5.76-.89-7.89-1.28,1.17-.31,3,.9,4.91.72,13.83,1.92,27.54,5.47,41.53,5a4.35,4.35,0,0,1,3.64,1c3.83,1.37,9-.29,10.2,7.19a23.39,23.39,0,0,1-3.37,15.57c-1.67,2.77.16,2.72.52,3.91-3.28,2-6.81,2-10.29,2q-177.85.06-355.7.05a17.61,17.61,0,0,1-6.17-.91c-1.5-2.11-1.62-3.49,1-3.78,3.51-.39,7-.8,10.49-1.48,2.24-.45,4.68-.53,7.39-3.47H122c.76-3.72,4.13-1.53,4.9-4.55-2-2.27-4.47-1.62-6.79-1.55-7.29.19-9.29-1.54-10.73-11-.45-3-1.82-3.61-3.42-4.39s-3.31-1.39-5.41-2.26c1-2.38,1.67-4.64,3.76-5.18,1.64-.42,3.4-.77,3.5-3.39.11-3.12-2-3.29-3.67-3.89a15.3,15.3,0,0,1-2.09-1.28c4.91-4.54,11.17-.71,15.51-5.64-.93-1.81-3.49.19-3.56-3.08s1.85-3,3.27-3.42c3-.95,5.41-4.63,8.93-4.1l-10.5-1.42c-3.47-.48-6.94-1-10.78-1.53Z" transform="translate(-90.43 -219.74)"/><path class="cls-3" d="M441.19,272c-1.6-.08-3.2-.23-4.79-.23q-163.65,0-327.29,0c-1.28,0-2.55.11-3.83.16-4.81-2.1-10-2.56-14.85-6.21,3.87,1.48,5.9-3,8.95-3.84s6.35.6,9.53.85c3.35.27,6.69.73,10,1,6.07.46,12.15.66,18.21,1.31,2.74.29,4-1.6,5.47-4.72-6.81-.43-13.28-1.21-19.74-1.14-9.94.12-19.39-3.49-29-5.6-1.92-.42-2.24-1.59-1.89-3.16.58-2.58,1.68-.2,2.58-.12,16.4,1.57,32.75,4.71,49.27,3.11,3.51-.34,7-.51,10.53-.76,5-1.79,10.1-1.2,15.1-2.3,4,.24,7.93-1.27,10.69-.7a89.27,89.27,0,0,0-13.48,1.19c-4.11-.25-8.15,1.65-12.29.72-10.71-.4-21.43-.91-32.15-1.14-4.59-.1-7.72-5.42-12.28-5.44-.24,0-.59-1.38-.67-2.15a1.47,1.47,0,0,1,.82-1.08c9.58-1.43,19.11-2.73,28.83-1.36a32.56,32.56,0,0,0,14-1.57c2.75-.85,1.5-4.9,1-7.67-.66-3.68-2.5-7.31-.06-11.4,3.1,3.43,2,7.45,1.71,11.27-.54,6.91.63,8.48,5.69,7.62,13.45-2.29,27-3.19,40.5-4.59,6.06-.62,12.14-1.21,18.14-2.41,3-.61,5.88,1.33,8.88,0s7.11,2.06,9.13-3.77c.17-.49,1.51-.31,2.31-.38,38.46-3.55,77-3.67,115.46-2,20,.87,39.89,3.5,59.46,9.48,10,3.06,19.18,8.9,28.53,14.1,5.35,3,11.31,3.91,17.32,9.07-4.46-.84-7.67-2.11-11.63-1.78,6.65,4.51,13.58,5.83,19.91,9.33-8.81,1.66-16.61-7.07-25.87-3.94,5.51,6.28,13.18,3.9,18.31,9.79-1.56,2.38-3.73,2.1-5.74,2-4.11-.16-8.21-.64-12.32-.59A5.17,5.17,0,0,1,441.19,272Z" transform="translate(-90.43 -219.74)"/><path class="cls-4" d="M113.52,413.82c2.12-1.47,4.41-.75,6.6-.75Q299.31,413,478.49,413c2.39,0,4.79-.21,7.19-.33,2.58,3.06-.19,1.88-1.08,2.55-11.24,8.5-23.33,3.22-35.81,3.58,3.7,3.46,7.37,3,10.82,3.52,4.29.59,8.68.32,12.9,1.3,3.12.73,7.66-2.49,9.12,4.63.15.71,2.31.72,3.62,1.07-.46,1.49-3.77.66-1.74,3.38,2.43,3.22,1.26,4.34-.72,7-1.65,2.27-3.51,4.62-5.07,7.18-2.26,3.7-6,2.7-9.62,2.61-11.54-.28-23-1.68-34.49-2.68-33.84-3-67.61-7.1-101.5-9a16.23,16.23,0,0,1-10.06-3.55c-1.52-1.26-3.63-1.53-5.51-1.83a446.79,446.79,0,0,0-96.2-5.53c-25.09,1.38-50,5.4-75.13,5.95-9.25.2-18.5-.79-27.74.32-3.15.38-7.12-9.06-5.46-12.92A14.74,14.74,0,0,0,113.52,413.82Z" transform="translate(-90.43 -219.74)"/><path class="cls-5" d="M449.49,469.09l8.44,1.79c-1.75,1.62-3.21.62-4.41,1.15-1.9.83-5.55-4.36-5.79,2.75,0,.21-2.38.42-3.65.39-8.34-.24-16.57-1.94-24.84-3.1-2.67-.37-5.4-.06-8.47-.06,3.92,4,9.16.58,12.72,4.95-31.63-2.75-63.36-3.2-94.81-8.32-52.63-8.57-105.3-10.23-158.09-3.12-2,.26-4.92-.64-3.06,5-2.51-4.81-5.71-4.38-9-3.94-5.57.73-11.18,1.05-16.74,1.85-1.94.28-3.45-.33-3.68-2.61-.26-2.47,1.76-2.5,3.06-2.78,2.52-.55,5.09-.73,7.6-1.3,1.19-.28,2.85-.66,2.71-2.78s-1.74-2.4-3-2.32c-4.31.28-8.61.82-12.91,1.19-1.42.12-2.86,0-4.28,0,1.22-5.08-1.36-6.75-8.31-5.38,1.51-3.39,4.4-4.57,12.38-4.94A54.57,54.57,0,0,0,150,445.36c-5.78-7-11.87-1.14-17-3.1,1.1-1.23,5-2.49,8.73-2.93,12.64-1.48,25.28-3.08,37.92-4.53,20.73-2.38,41.61-4.86,62.3-3.58,13.38.83,26.91,3.18,40.38,4.6,36.52,3.88,72.87,10.26,109.51,12.3,2.85.16,5.77-1.13,8.68,1.82,2.05,2.07,5.31,2.06,8,3.82a148,148,0,0,0-38.75-2c-6.39,1.75-12.46-2.62-17.36-1.54,4.88.16,11.09,1.72,17.36,2.63,19.72,2.54,39.44,5,59.15,7.69,6.53.9,13.08.93,19.6,1.51,5.61.49,11.09,3.08,16.94,2.29-3.81,7.31-9.24,2.29-13.79,3.5-3-.65-6.16,1.15-9.09-.86C444.68,468.35,447.36,467.25,449.49,469.09Z" transform="translate(-90.43 -219.74)"/><path class="cls-6" d="M442.3,272l19.45-.5a167.65,167.65,0,0,0,26.14,10.6c.84.27,2.08.59,1.45,2.36-.47,1.32-1.1,2.26-2.63,1.66-2.73-1.07-5.59-1.57-8.37-2.47-10.21-3.32-20.25-7.63-30.71-9.6C445.87,273.34,443.58,274.94,442.3,272Z" transform="translate(-90.43 -219.74)"/><path class="cls-7" d="M435.13,379.78l49.06,5.09c-1.92.68-4.09-.79-5.86,1.15-13.3,1.42-26.35-1.32-39.4-4.08-2.2-.46-4.42-.68-6.64-1C432.62,378,434.07,379.71,435.13,379.78Z" transform="translate(-90.43 -219.74)"/><path class="cls-8" d="M369.66,452.82c-6.22,0-12.42-.23-18.49-2.41,6.27-1.79,12.32,1.12,18.49,1.32Z" transform="translate(-90.43 -219.74)"/><path class="cls-9" d="M169.66,251.36l-15.31,1.28c0-.37,0-.73,0-1.09,4-1.37,8.2-1.15,12.32-1.4C167.8,250.05,169.26,248.45,169.66,251.36Z" transform="translate(-90.43 -219.74)"/><path class="cls-10" d="M449.49,469.09c-2.72.54-5.2-.82-7.76-1.69,3.32-.81,6.6-1.26,9.83.41Z" transform="translate(-90.43 -219.74)"/><path class="cls-11" d="M442.3,272c1.58,1.55,3.83.16,5.33,2.05l-1,1.26c-2-.54-4.22-.51-5.42-3.31Z" transform="translate(-90.43 -219.74)"/><path class="cls-12" d="M435.13,379.78c-.94.44-2.1-.11-2.84,1.15l-5.94-1.26C429.33,378.76,432.27,378,435.13,379.78Z" transform="translate(-90.43 -219.74)"/><path class="cls-13" d="M169.66,251.36c-.79-1.28-2-.7-3-1.21,5.14-2,10.36-1.06,15.62-.19Z" transform="translate(-90.43 -219.74)"/><path class="cls-14" d="M300.93,321.61c2.4-6.59,1-9.72-3.68-15.33-5.17-6.16-9.82-12.77-11.26-22.62,1.06-.92.95-2.44.95-3.88,0-3.53.88-4.8,3.61-4,4.27,1.26,8.73,2,13,.52,6.69-2.29,11.37,3.1,15.44,8.54,2.72,3.62,5.7,4.33,8.73,5.84.76.38,1.67.06,2.1-1.2s-.11-2.16-.63-3.1c-1.58-2.85-3.31-5.41-5.73-7l2.41.34a18.22,18.22,0,0,1,7.87,6.49c2,2.9,1.68,5.4-.86,7.22-1.72,1.24-3.74,2-5.33.56-5.6-5.13-11.45-4-17.61-1.88,1.85,2.17,4.12,3.08,6.19,4.4,5.53,3.53,11.13,6.92,15.63,12.85,7.1,9.34,8.69,21.2,6.81,34-3,20.67-10.51,37-24.13,46.9-2.46,1.78-5,3.47-7.37,5.41-3.4,2.73-6.24,6.22-6.73,12.2-.33,4,1.05,6.34,3.9,6.72,2,.28,4.76-.61,6,.92,3.06,3.76,7.19,3.84,10.69,7.59-3.17.58-5.85-1.55-8.57-.65-.48,1.48,1.11,1.59.83,3.71a26.13,26.13,0,0,0-14.33-2.81c2,2.37,4.57,2.83,6.44,5.87-2.77.36-4.86-1.85-7.42-1.29,1.2,1.64,3,2.36,3.41,5.82-9.63-6.72-19.43-8.63-29.66-6.78,1.81-2.65,4.17-3.11,6.23-4.49,3.34-2.24,4.4-4.93,3.85-10.08-2.06-19-14-29.17-27.54-23.45-1.23.53-2.38,1.92-4,1,3.91-6,9-7.25,14.28-7.66,7.52-.58,14.91,1.88,22.41,2,3.8.08,7.63.27,11.31-1.24,5.9-2.43,10.46-6.81,14.41-14.17,4.31-8.05,6.54-16.82,8.6-26,.3-1.31.86-2.69.35-4.19l0,.05.41-.15-.48-.76c-4.55-6-9.33-11.37-15.37-14.25C304.33,322.84,302.21,324.21,300.93,321.61ZM288.77,411.7c.24,2.89-.27,7.09,2.37,7.48s3.06-3.79,3.82-6.73c1.32-5.16-1.24-9-2.15-13.43-.26-1.24-1.12-.84-1.47.37C290.18,403.36,288.63,407.16,288.77,411.7Z" transform="translate(-90.43 -219.74)"/><path class="cls-15" d="M325.85,279.76l-2.41-.34c2.42,1.56,4.15,4.12,5.73,7,.52.94,1.08,1.83.63,3.1s-1.34,1.58-2.1,1.2c-3-1.51-6-2.22-8.73-5.84-4.07-5.44-8.75-10.83-15.44-8.54-4.25,1.45-8.71.74-13-.52-2.73-.81-3.6.46-3.61,4,0,1.44.11,3-.95,3.88-2.65-10,1.76-24.35,8.26-29.86,8.29-7,20.9-.94,24.74,9.87.91,2.58,2.3,2.81,4.12,1.83,6.19-3.35,11.74-2.09,16.83,4.29a9,9,0,0,1,1.69,4.69,35.63,35.63,0,0,1-2.77,21.46C336.8,286.3,332.9,280.32,325.85,279.76Z" transform="translate(-90.43 -219.74)"/><path class="cls-15" d="M300.93,321.61c1.28,2.6,3.4,1.23,5.09,2,6,2.88,10.82,8.26,15.37,14.25,0,.3.05.6.07.91l0-.05c-6.17,1.12-12.24.09-18.21-2a42.39,42.39,0,0,0-15.94-2.87c-10.61.44-17.84,8.82-23.37,20.91-.89,1.95-1.3,4.73-3.42,5.09-1-.33-1.75.23-2.48,1.17q-10.8,14.06-11.82,34.77c-.17.73-.55.67-.95.5-.71-13.89,0-27.42,5.76-39.34,3.8-7.92,7-16.56,12.3-22.87,1.11-1.33,3-1.61,3.21-4.28,2.83-1.27,4.91-4.44,7.76-5.83,7.72-3.76,15.56-4.16,23.55-2.69C298.9,321.47,299.92,321.5,300.93,321.61Z" transform="translate(-90.43 -219.74)"/><path class="cls-14" d="M266.58,329.8c-.23,2.67-2.1,2.95-3.21,4.28-5.33,6.31-8.5,14.95-12.3,22.87-5.72,11.92-6.47,25.45-5.76,39.34-1.22.3-1.23-1.26-1.54-2.16a68.55,68.55,0,0,1-3.23-30.5c.7-6.33,2.7-11.55,7.29-14,.54-.28,1-1,1.45-1.5,1-.43,1.81-1.76,1.11-2.7-.88-1.17-1.31.88-1.89,1.63-3.29,2.07-6.63,3.75-10.32,2.68.83-1.82.69-4,2.76-5.39a16.13,16.13,0,0,0,5.23-6.92c2-5.2,5.6-8,9.63-6.26,1.64.73,3.24.45,4.86.51.75,0,1.68-.2,1.53-1.48-.29-2.43,1.33-1.88,1.93-2.87C265.19,327.67,265.87,328.77,266.58,329.8Z" transform="translate(-90.43 -219.74)"/><path class="cls-15" d="M264.12,327.36c-.6,1-2.22.44-1.93,2.87.15,1.28-.78,1.51-1.53,1.48-1.62-.06-3.22.22-4.86-.51-4-1.79-7.65,1.06-9.63,6.26a16.13,16.13,0,0,1-5.23,6.92c-2.07,1.43-1.93,3.57-2.76,5.39-1.59-5.24,2-7.49,3.38-11.1-1.82-1.48-3.45.09-5.09.08-1,0-2.19.64-2.85-.84-.59-1.31.3-2.47.7-3.55,3.43-9.24,9.12-13.1,16.22-12.72C255.34,321.89,260.11,323,264.12,327.36Z" transform="translate(-90.43 -219.74)"/><path class="cls-14" d="M246.26,395.79q1-20.75,11.82-34.77c.73-.94,1.49-1.5,2.48-1.17,0,4,1.54,2.36,2.75,1.49a37.38,37.38,0,0,1,20.41-6.91,6.77,6.77,0,0,1,3.45.56c-4.26,1.6-8.46,3.69-12.79,4.6-2.24.48-3.6,2.3-5.37,3.55-9.87,6.94-17.52,16.9-21.9,31.47A4.27,4.27,0,0,1,246.26,395.79Z" transform="translate(-90.43 -219.74)"/><path class="cls-16" d="M288.77,411.7c-.14-4.54,1.41-8.34,2.57-12.31.35-1.21,1.21-1.61,1.47-.37.91,4.39,3.47,8.27,2.15,13.43-.76,2.94-1.17,7.12-3.82,6.73S289,414.59,288.77,411.7Z" transform="translate(-90.43 -219.74)"/><path class="cls-16" d="M321.46,338.81c0-.31,0-.61-.07-.91l.48.76Z" transform="translate(-90.43 -219.74)"/><path class="cls-16" d="M248.5,347.09c.58-.75,1-2.8,1.89-1.63.7.94-.12,2.27-1.11,2.7Z" transform="translate(-90.43 -219.74)"/></svg>